<mxfile host="app.diagrams.net" modified="2024-03-25T11:47:59.750Z" agent="Mozilla/5.0 (Windows NT 10.0; Win64; x64) AppleWebKit/537.36 (KHTML, like Gecko) Chrome/122.0.0.0 Safari/537.36" etag="M6e6qOnj0mf_x6Ja-i6v" version="24.0.7" type="device">
  <diagram name="Pagina-1" id="dRhcXz8oS_HXQejQhX38">
    <mxGraphModel dx="1674" dy="1946" grid="1" gridSize="10" guides="1" tooltips="1" connect="1" arrows="1" fold="1" page="1" pageScale="1" pageWidth="1920" pageHeight="1200" math="0" shadow="0">
      <root>
        <mxCell id="0" />
        <mxCell id="1" parent="0" />
        <mxCell id="vStvGhAySzdytfDFjWN4-1" value="&lt;font style=&quot;font-size: 24px;&quot;&gt;MainWindow&lt;/font&gt;" style="swimlane;fontStyle=1;align=center;verticalAlign=top;childLayout=stackLayout;horizontal=1;startSize=40;horizontalStack=0;resizeParent=1;resizeParentMax=0;resizeLast=0;collapsible=1;marginBottom=0;whiteSpace=wrap;html=1;" parent="1" vertex="1">
          <mxGeometry x="906" y="-1180" width="170" height="104" as="geometry" />
        </mxCell>
        <mxCell id="vStvGhAySzdytfDFjWN4-2" value="" style="line;strokeWidth=1;fillColor=none;align=left;verticalAlign=middle;spacingTop=-1;spacingLeft=3;spacingRight=3;rotatable=0;labelPosition=right;points=[];portConstraint=eastwest;strokeColor=inherit;" parent="vStvGhAySzdytfDFjWN4-1" vertex="1">
          <mxGeometry y="40" width="170" height="8" as="geometry" />
        </mxCell>
        <mxCell id="vStvGhAySzdytfDFjWN4-3" value="&lt;font style=&quot;font-size: 18px;&quot;&gt;+MainWindow()&lt;br&gt;+&lt;i style=&quot;&quot;&gt;~MainWindow()&lt;/i&gt;&lt;/font&gt;" style="text;strokeColor=none;fillColor=none;align=left;verticalAlign=top;spacingLeft=4;spacingRight=4;overflow=hidden;rotatable=0;points=[[0,0.5],[1,0.5]];portConstraint=eastwest;whiteSpace=wrap;html=1;" parent="vStvGhAySzdytfDFjWN4-1" vertex="1">
          <mxGeometry y="48" width="170" height="56" as="geometry" />
        </mxCell>
        <mxCell id="vStvGhAySzdytfDFjWN4-4" value="&lt;font style=&quot;font-size: 24px;&quot;&gt;SensorPanel&lt;/font&gt;" style="swimlane;fontStyle=1;align=center;verticalAlign=top;childLayout=stackLayout;horizontal=1;startSize=40;horizontalStack=0;resizeParent=1;resizeParentMax=0;resizeLast=0;collapsible=1;marginBottom=0;whiteSpace=wrap;html=1;" parent="1" vertex="1">
          <mxGeometry x="1080" y="-420" width="310" height="104" as="geometry" />
        </mxCell>
        <mxCell id="vStvGhAySzdytfDFjWN4-5" value="&lt;font style=&quot;font-size: 18px;&quot;&gt;-info : Info *&lt;/font&gt;" style="text;strokeColor=none;fillColor=none;align=left;verticalAlign=top;spacingLeft=4;spacingRight=4;overflow=hidden;rotatable=0;points=[[0,0.5],[1,0.5]];portConstraint=eastwest;whiteSpace=wrap;html=1;" parent="vStvGhAySzdytfDFjWN4-4" vertex="1">
          <mxGeometry y="40" width="310" height="26" as="geometry" />
        </mxCell>
        <mxCell id="vStvGhAySzdytfDFjWN4-6" value="" style="line;strokeWidth=1;fillColor=none;align=left;verticalAlign=middle;spacingTop=-1;spacingLeft=3;spacingRight=3;rotatable=0;labelPosition=right;points=[];portConstraint=eastwest;strokeColor=inherit;" parent="vStvGhAySzdytfDFjWN4-4" vertex="1">
          <mxGeometry y="66" width="310" height="8" as="geometry" />
        </mxCell>
        <mxCell id="vStvGhAySzdytfDFjWN4-7" value="&lt;font style=&quot;font-size: 18px;&quot;&gt;+SensorPanel(Sensore*, QWidget*)&lt;/font&gt;" style="text;strokeColor=none;fillColor=none;align=left;verticalAlign=top;spacingLeft=4;spacingRight=4;overflow=hidden;rotatable=0;points=[[0,0.5],[1,0.5]];portConstraint=eastwest;whiteSpace=wrap;html=1;" parent="vStvGhAySzdytfDFjWN4-4" vertex="1">
          <mxGeometry y="74" width="310" height="30" as="geometry" />
        </mxCell>
        <mxCell id="vStvGhAySzdytfDFjWN4-8" value="&lt;font style=&quot;font-size: 24px;&quot;&gt;SearchBarPanel&lt;/font&gt;" style="swimlane;fontStyle=1;align=center;verticalAlign=top;childLayout=stackLayout;horizontal=1;startSize=40;horizontalStack=0;resizeParent=1;resizeParentMax=0;resizeLast=0;collapsible=1;marginBottom=0;whiteSpace=wrap;html=1;" parent="1" vertex="1">
          <mxGeometry x="510" y="-400" width="420" height="238" as="geometry" />
        </mxCell>
        <mxCell id="vStvGhAySzdytfDFjWN4-9" value="&lt;div&gt;&lt;font style=&quot;font-size: 18px;&quot;&gt;&lt;span style=&quot;background-color: initial;&quot;&gt;-ricerca: QLineEdit*&lt;/span&gt;&lt;br&gt;&lt;/font&gt;&lt;/div&gt;&lt;div&gt;&lt;font style=&quot;font-size: 18px;&quot;&gt;-risultati: QWidget*&lt;/font&gt;&lt;/div&gt;&lt;div&gt;&lt;font style=&quot;font-size: 18px;&quot;&gt;-visualizzazione : QScrollArea*&lt;/font&gt;&lt;/div&gt;&lt;div&gt;&lt;font style=&quot;font-size: 18px;&quot;&gt;-layoutV : QVBoxLayout*&lt;/font&gt;&lt;/div&gt;&lt;div&gt;&lt;font style=&quot;font-size: 18px;&quot;&gt;-scrollayout : QVBoxLayout*&lt;/font&gt;&lt;/div&gt;&lt;div&gt;&lt;font style=&quot;font-size: 18px;&quot;&gt;-scrollVisua: QWidget *&lt;/font&gt;&lt;/div&gt;&lt;div&gt;&lt;font style=&quot;font-size: 18px;&quot;&gt;-mod : modello *&lt;/font&gt;&lt;/div&gt;" style="text;strokeColor=none;fillColor=none;align=left;verticalAlign=top;spacingLeft=4;spacingRight=4;overflow=hidden;rotatable=0;points=[[0,0.5],[1,0.5]];portConstraint=eastwest;whiteSpace=wrap;html=1;" parent="vStvGhAySzdytfDFjWN4-8" vertex="1">
          <mxGeometry y="40" width="420" height="160" as="geometry" />
        </mxCell>
        <mxCell id="vStvGhAySzdytfDFjWN4-10" value="" style="line;strokeWidth=1;fillColor=none;align=left;verticalAlign=middle;spacingTop=-1;spacingLeft=3;spacingRight=3;rotatable=0;labelPosition=right;points=[];portConstraint=eastwest;strokeColor=inherit;" parent="vStvGhAySzdytfDFjWN4-8" vertex="1">
          <mxGeometry y="200" width="420" height="8" as="geometry" />
        </mxCell>
        <mxCell id="vStvGhAySzdytfDFjWN4-11" value="&lt;div&gt;&lt;font style=&quot;font-size: 18px;&quot;&gt;+searchBarPanel(modello* , QWidget*)&lt;/font&gt;&lt;/div&gt;" style="text;strokeColor=none;fillColor=none;align=left;verticalAlign=top;spacingLeft=4;spacingRight=4;overflow=hidden;rotatable=0;points=[[0,0.5],[1,0.5]];portConstraint=eastwest;whiteSpace=wrap;html=1;" parent="vStvGhAySzdytfDFjWN4-8" vertex="1">
          <mxGeometry y="208" width="420" height="30" as="geometry" />
        </mxCell>
        <mxCell id="vStvGhAySzdytfDFjWN4-12" value="&lt;font style=&quot;font-size: 24px;&quot;&gt;Info&lt;/font&gt;" style="swimlane;fontStyle=1;align=center;verticalAlign=top;childLayout=stackLayout;horizontal=1;startSize=40;horizontalStack=0;resizeParent=1;resizeParentMax=0;resizeLast=0;collapsible=1;marginBottom=0;whiteSpace=wrap;html=1;" parent="1" vertex="1">
          <mxGeometry x="1080" y="-280" width="310" height="250" as="geometry" />
        </mxCell>
        <mxCell id="vStvGhAySzdytfDFjWN4-13" value="&lt;div&gt;&lt;font style=&quot;font-size: 18px;&quot;&gt;-sensore: Sensore&amp;amp;&lt;/font&gt;&lt;/div&gt;&lt;div&gt;&lt;font style=&quot;font-size: 18px;&quot;&gt;-nome_label: QLabel*&lt;/font&gt;&lt;/div&gt;&lt;div&gt;&lt;font style=&quot;font-size: 18px;&quot;&gt;-tipo_label : QLabel*&lt;/font&gt;&lt;/div&gt;&lt;div&gt;&lt;font style=&quot;font-size: 18px;&quot;&gt;-descrizione_label: QLabel*&lt;/font&gt;&lt;/div&gt;&lt;div&gt;&lt;font style=&quot;font-size: 18px;&quot;&gt;-min_label : QLabel*&lt;/font&gt;&lt;/div&gt;&lt;div&gt;&lt;span style=&quot;background-color: initial;&quot;&gt;&lt;font style=&quot;font-size: 18px;&quot;&gt;-max_label: QLabel*&lt;/font&gt;&lt;/span&gt;&lt;/div&gt;" style="text;strokeColor=none;fillColor=none;align=left;verticalAlign=top;spacingLeft=4;spacingRight=4;overflow=hidden;rotatable=0;points=[[0,0.5],[1,0.5]];portConstraint=eastwest;whiteSpace=wrap;html=1;" parent="vStvGhAySzdytfDFjWN4-12" vertex="1">
          <mxGeometry y="40" width="310" height="140" as="geometry" />
        </mxCell>
        <mxCell id="vStvGhAySzdytfDFjWN4-14" value="" style="line;strokeWidth=1;fillColor=none;align=left;verticalAlign=middle;spacingTop=-1;spacingLeft=3;spacingRight=3;rotatable=0;labelPosition=right;points=[];portConstraint=eastwest;strokeColor=inherit;" parent="vStvGhAySzdytfDFjWN4-12" vertex="1">
          <mxGeometry y="180" width="310" height="8" as="geometry" />
        </mxCell>
        <mxCell id="vStvGhAySzdytfDFjWN4-15" value="&lt;div&gt;&lt;font style=&quot;font-size: 18px;&quot;&gt;+Info(Sensore&amp;amp;, QWidget*)&lt;span style=&quot;background-color: initial;&quot;&gt;&amp;nbsp;&lt;/span&gt;&lt;/font&gt;&lt;/div&gt;&lt;div&gt;&lt;span style=&quot;background-color: initial;&quot;&gt;&lt;font style=&quot;font-size: 18px;&quot;&gt;+show() void&lt;/font&gt;&lt;/span&gt;&lt;/div&gt;" style="text;strokeColor=none;fillColor=none;align=left;verticalAlign=top;spacingLeft=4;spacingRight=4;overflow=hidden;rotatable=0;points=[[0,0.5],[1,0.5]];portConstraint=eastwest;whiteSpace=wrap;html=1;" parent="vStvGhAySzdytfDFjWN4-12" vertex="1">
          <mxGeometry y="188" width="310" height="62" as="geometry" />
        </mxCell>
        <mxCell id="vStvGhAySzdytfDFjWN4-16" value="&lt;font style=&quot;font-size: 24px;&quot;&gt;HomePanel&lt;/font&gt;" style="swimlane;fontStyle=1;align=center;verticalAlign=top;childLayout=stackLayout;horizontal=1;startSize=44;horizontalStack=0;resizeParent=1;resizeParentMax=0;resizeLast=0;collapsible=1;marginBottom=0;whiteSpace=wrap;html=1;" parent="1" vertex="1">
          <mxGeometry x="711" y="-1024" width="560" height="570" as="geometry" />
        </mxCell>
        <mxCell id="vStvGhAySzdytfDFjWN4-17" value="&lt;div&gt;&lt;font style=&quot;font-size: 18px;&quot;&gt;-sensoreGenerale : Sensore*&lt;/font&gt;&lt;/div&gt;&lt;div&gt;&lt;font style=&quot;font-size: 18px;&quot;&gt;-layoutApp :QHBoxLayout*&lt;/font&gt;&lt;/div&gt;&lt;div&gt;&lt;font style=&quot;font-size: 18px;&quot;&gt;-grafico: QChartView*&lt;/font&gt;&lt;/div&gt;&lt;div&gt;&lt;font style=&quot;font-size: 18px;&quot;&gt;-modifica : QWidget*&lt;/font&gt;&lt;/div&gt;&lt;div&gt;&lt;font style=&quot;font-size: 18px;&quot;&gt;-pannello : SensorPanel*&lt;/font&gt;&lt;/div&gt;&lt;div&gt;&lt;font style=&quot;font-size: 18px;&quot;&gt;-barraRicerca : searchBarPanel*&lt;/font&gt;&lt;/div&gt;&lt;div&gt;&lt;font style=&quot;font-size: 18px;&quot;&gt;-creazione: QWidget*&lt;/font&gt;&lt;/div&gt;&lt;div&gt;&lt;font style=&quot;font-size: 18px;&quot;&gt;-mod: modello*&lt;/font&gt;&lt;/div&gt;&lt;div&gt;&lt;font style=&quot;font-size: 18px;&quot;&gt;-nomeFile : QString&lt;/font&gt;&lt;/div&gt;&lt;div&gt;&lt;font style=&quot;font-size: 18px;&quot;&gt;-saveStessoFile : QPushButton*&lt;/font&gt;&lt;/div&gt;&lt;div&gt;&lt;font style=&quot;font-size: 18px;&quot;&gt;-modificato : bool&lt;/font&gt;&lt;/div&gt;&lt;div&gt;&lt;font style=&quot;font-size: 18px;&quot;&gt;-sceltaGrafico : QComboBox*&lt;/font&gt;&lt;/div&gt;&lt;div&gt;&lt;font style=&quot;font-size: 18px;&quot;&gt;-comandiZoom : QPushButton*&lt;/font&gt;&lt;/div&gt;&lt;div&gt;&lt;font style=&quot;font-size: 18px;&quot;&gt;-legenda : QLabel*&lt;/font&gt;&lt;/div&gt;&lt;div&gt;&lt;font style=&quot;font-size: 18px;&quot;&gt;-zoomGrafico : int&lt;/font&gt;&lt;/div&gt;&lt;div&gt;&lt;font style=&quot;font-size: 18px;&quot;&gt;-elimina : QWidget*&lt;/font&gt;&lt;/div&gt;" style="text;strokeColor=none;fillColor=none;align=left;verticalAlign=top;spacingLeft=4;spacingRight=4;overflow=hidden;rotatable=0;points=[[0,0.5],[1,0.5]];portConstraint=eastwest;whiteSpace=wrap;html=1;" parent="vStvGhAySzdytfDFjWN4-16" vertex="1">
          <mxGeometry y="44" width="560" height="356" as="geometry" />
        </mxCell>
        <mxCell id="vStvGhAySzdytfDFjWN4-18" value="" style="line;strokeWidth=1;fillColor=none;align=left;verticalAlign=middle;spacingTop=-1;spacingLeft=3;spacingRight=3;rotatable=0;labelPosition=right;points=[];portConstraint=eastwest;strokeColor=inherit;" parent="vStvGhAySzdytfDFjWN4-16" vertex="1">
          <mxGeometry y="400" width="560" height="8" as="geometry" />
        </mxCell>
        <mxCell id="vStvGhAySzdytfDFjWN4-19" value="&lt;font style=&quot;font-size: 18px;&quot;&gt;+HomePanel()&lt;br&gt;&lt;/font&gt;&lt;div&gt;&lt;font style=&quot;font-size: 18px;&quot;&gt;+comandiGrafico(QKeyEvent*) : void&lt;/font&gt;&lt;/div&gt;&lt;div&gt;&lt;font style=&quot;font-size: 18px;&quot;&gt;+spostamentoAsseX(int) void&lt;/font&gt;&lt;/div&gt;&lt;div&gt;&lt;font style=&quot;font-size: 18px;&quot;&gt;+spostamentoAsseY(int) void&lt;/font&gt;&lt;/div&gt;&lt;div&gt;&lt;font style=&quot;font-size: 18px;&quot;&gt;+rimozioneZoom() void&lt;/font&gt;&lt;/div&gt;&lt;div&gt;&lt;font style=&quot;font-size: 18px;&quot;&gt;+zoomIn() void&lt;/font&gt;&lt;/div&gt;&lt;div&gt;&lt;font style=&quot;font-size: 18px;&quot;&gt;+zoomOut() void&lt;/font&gt;&lt;/div&gt;" style="text;strokeColor=none;fillColor=none;align=left;verticalAlign=top;spacingLeft=4;spacingRight=4;overflow=hidden;rotatable=0;points=[[0,0.5],[1,0.5]];portConstraint=eastwest;whiteSpace=wrap;html=1;" parent="vStvGhAySzdytfDFjWN4-16" vertex="1">
          <mxGeometry y="408" width="560" height="162" as="geometry" />
        </mxCell>
        <mxCell id="vStvGhAySzdytfDFjWN4-20" value="" style="endArrow=diamondThin;endFill=0;endSize=24;html=1;rounded=0;entryX=0.304;entryY=1.054;entryDx=0;entryDy=0;entryPerimeter=0;exitX=0.5;exitY=0;exitDx=0;exitDy=0;" parent="1" source="vStvGhAySzdytfDFjWN4-8" target="vStvGhAySzdytfDFjWN4-19" edge="1">
          <mxGeometry width="160" relative="1" as="geometry">
            <mxPoint x="790" y="-650" as="sourcePoint" />
            <mxPoint x="950" y="-650" as="targetPoint" />
          </mxGeometry>
        </mxCell>
        <mxCell id="vStvGhAySzdytfDFjWN4-21" value="" style="endArrow=diamondThin;endFill=0;endSize=24;html=1;rounded=0;entryX=0.681;entryY=1.067;entryDx=0;entryDy=0;entryPerimeter=0;exitX=0.5;exitY=0;exitDx=0;exitDy=0;" parent="1" source="vStvGhAySzdytfDFjWN4-4" target="vStvGhAySzdytfDFjWN4-19" edge="1">
          <mxGeometry width="160" relative="1" as="geometry">
            <mxPoint x="730" y="-390" as="sourcePoint" />
            <mxPoint x="891" y="-557" as="targetPoint" />
          </mxGeometry>
        </mxCell>
        <mxCell id="vStvGhAySzdytfDFjWN4-22" value="" style="endArrow=diamondThin;endFill=0;endSize=24;html=1;rounded=0;entryX=0.503;entryY=1.103;entryDx=0;entryDy=0;entryPerimeter=0;exitX=0.5;exitY=0;exitDx=0;exitDy=0;" parent="1" source="vStvGhAySzdytfDFjWN4-12" target="vStvGhAySzdytfDFjWN4-7" edge="1">
          <mxGeometry width="160" relative="1" as="geometry">
            <mxPoint x="740" y="-380" as="sourcePoint" />
            <mxPoint x="901" y="-547" as="targetPoint" />
          </mxGeometry>
        </mxCell>
        <mxCell id="vStvGhAySzdytfDFjWN4-23" value="Use" style="endArrow=open;endSize=12;dashed=1;html=1;rounded=0;entryX=0.497;entryY=1.039;entryDx=0;entryDy=0;entryPerimeter=0;exitX=0.5;exitY=0;exitDx=0;exitDy=0;" parent="1" source="vStvGhAySzdytfDFjWN4-16" target="vStvGhAySzdytfDFjWN4-3" edge="1">
          <mxGeometry width="160" relative="1" as="geometry">
            <mxPoint x="790" y="-650" as="sourcePoint" />
            <mxPoint x="950" y="-650" as="targetPoint" />
          </mxGeometry>
        </mxCell>
      </root>
    </mxGraphModel>
  </diagram>
</mxfile>
